<svg xmlns="http://www.w3.org/2000/svg" viewBox="0 0 64 64" fill="none" stroke="currentColor" stroke-width="1.5" stroke-linecap="round" stroke-linejoin="round">
  <path d="M32 58V28"/>
  <path d="M32 28c0-3 2-6 2-9s-1-5-2-7"/>
  <path d="M30 16c-1 2-2 4-2 7s2 6 2 9"/>
  <path d="M28 14a2 2 0 1 1 4 0"/>
  <path d="M26 18a2 2 0 1 1 4 0"/>
  <path d="M30 12a2 2 0 1 1 4 0"/>
  <path d="M27 22a2 1.5 0 1 1 3 0"/>
  <path d="M31 16a2 1.5 0 1 1 3 0"/>
  <path d="M25 15a1.5 2 0 1 1 3 0"/>
  <path d="M32 40l8-6M32 44l-7-5"/>
</svg>
