<svg xmlns="http://www.w3.org/2000/svg" viewBox="0 0 64 64" fill="none" stroke="currentColor" stroke-width="1.5" stroke-linecap="round" stroke-linejoin="round">
  <path d="M32 58V8"/>
  <path d="M30 14c-2 0-3-1-3-2M34 14c2 0 3-1 3-2"/>
  <path d="M30 20c-2 0-3-1-3-2M34 20c2 0 3-1 3-2"/>
  <path d="M30 26c-2 0-3-1-3-2M34 26c2 0 3-1 3-2"/>
  <path d="M32 36c6 1 10-1 10-4s-4-5-10-5"/>
  <path d="M32 36c-6 1-10-1-10-4s4-5 10-5"/>
  <path d="M32 46c5 0 8-1 8-4s-3-4-8-4"/>
  <path d="M32 46c-5 0-8-1-8-4s3-4 8-4"/>
</svg>
